<svg width="512" height="512" viewBox="0 0 512 512" fill="none" xmlns="http://www.w3.org/2000/svg">
    <defs>
        <linearGradient id="icon-gradient" x1="0%" y1="0%" x2="100%" y2="100%">
            <stop offset="0%" style="stop-color:#4A4A4A;"/>
            <stop offset="100%" style="stop-color:#2C2C2C;"/>
        </linearGradient>
    </defs>
    
    <!-- Background -->
    <rect width="512" height="512" rx="80" fill="url(#icon-gradient)"/>

    <!-- Main Game Group: Translated down to y=200 -->
    <g transform="translate(81, 200)">
        
        <!-- Falling Notes (Drawn BEHIND keys) -->
        <!-- Shortened height to 40px to match game logic -->
        
        <!-- Note 1: Cyan (White Key C) - Close to hitting -->
        <rect x="10" y="-50" width="40" height="40" rx="4" fill="#00FFFF" stroke="#008888" stroke-width="2"/>
        
        <!-- Note 2: Magenta (Black Key D#) - Mid way -->
        <rect x="85" y="-90" width="40" height="40" rx="4" fill="#FF00FF" stroke="#880088" stroke-width="2"/>
        
        <!-- Note 3: Cyan (White Key A) - High up -->
        <rect x="260" y="-140" width="40" height="40" rx="4" fill="#00FFFF" stroke="#008888" stroke-width="2"/>

        <!-- Piano Base -->
        <rect width="350" height="200" rx="10" fill="#000"/>
        
        <!-- White Keys Area -->
        <rect x="5" y="5" width="340" height="190" fill="#FFF"/>

        <!-- Key Separators -->
        <path d="M 55 120 L 55 195 M 105 120 L 105 195 M 155 5 L 155 195 M 205 120 L 205 195 M 255 120 L 255 195 M 305 5 L 305 195" stroke="#E5E7EB" stroke-width="1.5"/>

        <!-- The Red "Hit" / Judgment Line -->
        <line x1="5" y1="5" x2="345" y2="5" stroke="#CC0000" stroke-width="6" />

        <!-- Black Keys -->
        <g id="black-keys">
            <rect x="35" y="5" width="40" height="115" rx="5" fill="#1F2937" stroke="#000" stroke-width="1"/>
            <rect x="85" y="5" width="40" height="115" rx="5" fill="#1F2937" stroke="#000" stroke-width="1"/>
            <rect x="185" y="5" width="40" height="115" rx="5" fill="#1F2937" stroke="#000" stroke-width="1"/>
            <rect x="235" y="5" width="40" height="115" rx="5" fill="#1F2937" stroke="#000" stroke-width="1"/>
            <rect x="285" y="5" width="40" height="115" rx="5" fill="#1F2937" stroke="#000" stroke-width="1"/>
        </g>
    </g>
</svg>